<?xml version="1.0"?><svg width="136.301" height="133.554" xmlns="http://www.w3.org/2000/svg">
 <title>Red-Arrow-Up</title>

 <g>
  <title>Layer 1</title>
  <g id="g3">
   <path stroke="#fcfcfc" fill="#00e5dc" id="path10" d="m8.15478,57.203442c8.683999,0 17.37,0 26.055001,0c0.875999,0 0.413998,-21.411003 0.413998,-23.408001c0.001999,-7.318001 -2.594997,-21.402 2.615002,-27.582001c5.441998,-6.456 19.133999,-3.953 26.521,-3.953c9.347,0 18.695999,0 28.044998,0c12.553001,0 11.354004,12.944 11.354004,21.597001c0,10.591999 0,21.184998 0,31.775997c0,2.726002 2.367996,1.570004 4.850998,1.570004c5.667,0 11.331001,0 16.996002,0c9.421005,0 13.819,9.716999 6.959,16.598995c-5.921005,5.941002 -11.844002,11.883003 -17.766006,17.824005c-12.606995,12.646996 -24.644997,27.020996 -38.353996,38.47599c-8.105003,8.083008 -15.823002,-0.108002 -21.533001,-5.812996c-7.777,-7.770996 -15.556999,-15.542999 -23.334,-23.314995c-7.644999,-7.636002 -15.287999,-15.274002 -22.931999,-22.910004c-4.956,-4.953995 -11.288,-11.227997 -4.972,-18.505997c1.291,-1.487 3.104,-2.355 5.081,-2.355" transform="rotate(180, 67.8633, 67.6367)"/>
  </g>
 </g>
</svg>